<?xml version="1.0" encoding="UTF-8" standalone="no"?>
<!-- Created with Inkscape (http://www.inkscape.org/) -->

<svg
   xmlns:dc="http://purl.org/dc/elements/1.1/"
   xmlns:cc="http://creativecommons.org/ns#"
   xmlns:rdf="http://www.w3.org/1999/02/22-rdf-syntax-ns#"
   xmlns:svg="http://www.w3.org/2000/svg"
   xmlns="http://www.w3.org/2000/svg"
   xmlns:sodipodi="http://sodipodi.sourceforge.net/DTD/sodipodi-0.dtd"
   xmlns:inkscape="http://www.inkscape.org/namespaces/inkscape"
   width="22.476858mm"
   height="25mm"
   viewBox="0 0 22.476858 25"
   version="1.1"
   id="svg1993"
   sodipodi:docname="gas.svg"
   inkscape:version="0.92.5 (2060ec1f9f, 2020-04-08)">
  <defs
     id="defs1987" />
  <sodipodi:namedview
     id="base"
     pagecolor="#ffffff"
     bordercolor="#666666"
     borderopacity="1.0"
     inkscape:pageopacity="0.0"
     inkscape:pageshadow="2"
     inkscape:zoom="1"
     inkscape:cx="41.735874"
     inkscape:cy="60.325594"
     inkscape:document-units="mm"
     inkscape:current-layer="layer1"
     showgrid="false"
     inkscape:pagecheckerboard="true"
     fit-margin-top="0"
     fit-margin-left="0"
     fit-margin-right="0"
     fit-margin-bottom="0"
     inkscape:window-width="1548"
     inkscape:window-height="836"
     inkscape:window-x="52"
     inkscape:window-y="27"
     inkscape:window-maximized="1" />
  <metadata
     id="metadata1990">
    <rdf:RDF>
      <cc:Work
         rdf:about="">
        <dc:format>image/svg+xml</dc:format>
        <dc:type
           rdf:resource="http://purl.org/dc/dcmitype/StillImage" />
        <dc:title></dc:title>
      </cc:Work>
    </rdf:RDF>
  </metadata>
  <g
     inkscape:label="Capa 1"
     inkscape:groupmode="layer"
     id="layer1"
     transform="translate(-106.66089,-171.45997)">
    <path
       d="m 127.66412,175.65049 c -2.1737,-2.86747 -6.90184,-4.92751 -5.73192,-3.8237 1.76013,1.65971 3.03111,2.77055 3.65912,3.76328 0.43902,0.69397 -0.34891,1.08965 -0.23899,1.6265 0.22318,1.09002 0.94111,2.49957 1.74413,2.84597 0.0208,0.008 0.0347,0.0137 0.0553,0.0212 0.014,1.79607 0,7.50097 -0.0139,11.46257 -0.007,0.17387 -0.14537,1.98589 -1.59912,1.98589 -1.4399,0 -1.5922,-1.81636 -1.59913,-1.98645 v -6.44992 c 0,-1.2926 -0.36689,-2.28847 -1.07992,-2.96015 -0.47757,-0.44867 -1.02445,-0.66064 -1.46751,-0.76046 v -0.74742 -7.77037 c 2e-5,-0.77145 -0.62995,-1.39746 -1.39835,-1.39746 h -11.18001 c -0.77534,0 -1.39837,0.62601 -1.39837,1.39746 v 22.18591 h -0.75456 v 1.41663 h 2.15293 11.18001 2.15294 v -1.41663 h -0.75457 v -0.55194 -11.88258 c 0.2146,0.0778 0.44305,0.19901 0.65072,0.39321 0.47074,0.43861 0.70611,1.14249 0.70611,2.0938 v 6.4664 0.0263 c 0.0485,1.08332 0.69226,3.13171 2.78981,3.13171 2.09755,0 2.74135,-2.04839 2.78981,-3.13171 v -0.0245 c 0,0 0.007,-3.01049 0.0139,-6.02675 0,-1.50892 0.007,-3.0186 0,-4.15411 0,-0.6679 0,-1.12354 -0.007,-1.44212 0.18691,-0.12618 0.33228,-0.28445 0.43612,-0.41854 0.26306,-0.35832 1.073,-1.00357 -1.10761,-3.87181 z m -7.68409,6.09675 H 108.8277 v -8.14355 h 1.03147 v -0.009 h 9.08246 v 0.009 h 1.0384 v 8.14355"
       style="fill:#001741;fill-opacity:1;fill-rule:nonzero;stroke:none;stroke-width:0.06922606"
       id="path874"
       inkscape:connector-curvature="0"
       sodipodi:nodetypes="ccsacccscsccccssscccccccccccsccsccccccccccccccccc" />
  </g>
</svg>
