<?xml version="1.0" encoding="UTF-8" standalone="no"?>
<!-- Created with Inkscape (http://www.inkscape.org/) -->

<svg
   xmlns:dc="http://purl.org/dc/elements/1.1/"
   xmlns:cc="http://creativecommons.org/ns#"
   xmlns:rdf="http://www.w3.org/1999/02/22-rdf-syntax-ns#"
   xmlns:svg="http://www.w3.org/2000/svg"
   xmlns="http://www.w3.org/2000/svg"
   xmlns:sodipodi="http://sodipodi.sourceforge.net/DTD/sodipodi-0.dtd"
   xmlns:inkscape="http://www.inkscape.org/namespaces/inkscape"
   width="55.904251mm"
   height="25mm"
   viewBox="0 0 55.904251 25"
   version="1.1"
   id="svg834"
   inkscape:version="0.92.5 (2060ec1f9f, 2020-04-08)"
   sodipodi:docname="hood.svg">
  <defs
     id="defs828" />
  <sodipodi:namedview
     id="base"
     pagecolor="#ffffff"
     bordercolor="#666666"
     borderopacity="1.0"
     inkscape:pageopacity="0.0"
     inkscape:pageshadow="2"
     inkscape:zoom="1"
     inkscape:cx="-228.64044"
     inkscape:cy="-42.913562"
     inkscape:document-units="mm"
     inkscape:current-layer="layer1"
     showgrid="false"
     inkscape:pagecheckerboard="true"
     fit-margin-top="0"
     fit-margin-left="0"
     fit-margin-right="0"
     fit-margin-bottom="0"
     inkscape:window-width="1548"
     inkscape:window-height="836"
     inkscape:window-x="52"
     inkscape:window-y="27"
     inkscape:window-maximized="1" />
  <metadata
     id="metadata831">
    <rdf:RDF>
      <cc:Work
         rdf:about="">
        <dc:format>image/svg+xml</dc:format>
        <dc:type
           rdf:resource="http://purl.org/dc/dcmitype/StillImage" />
        <dc:title></dc:title>
      </cc:Work>
    </rdf:RDF>
  </metadata>
  <g
     inkscape:label="Capa 1"
     inkscape:groupmode="layer"
     id="layer1"
     transform="translate(-51.42302,-48.97912)">
    <path
       d="M 102.07362,57.54417 H 98.008288 L 90.756262,49.027752 H 74.622431 l -7.963509,7.858508 -7.464189,-6.438745 c -3.420018,-2.450602 -4.55498,-1.311557 -6.192297,-0.320386 -0.625766,0.407179 -0.802566,1.244032 -0.395391,1.869797 0.407178,0.625767 1.244032,0.803639 1.869796,0.395389 0.01711,-0.01059 1.220783,-1.446221 2.950959,0.10289 l 5.855841,5.04899 h -5.294366 -1.313681 c -4.455852,0 -5.252574,2.453774 -5.252574,5.481882 v 1.042586 c 0,3.028106 0.142328,5.481878 5.252574,5.481878 h 1.968376 c 0.646126,2.544854 2.945603,4.428579 5.690832,4.428579 2.746294,0 5.045767,-1.883725 5.691891,-4.428579 h 19.570189 c 0.647194,2.544854 2.946672,4.428579 5.691894,4.428579 2.746302,0 5.043634,-1.883725 5.690834,-4.428579 h 1.09401 c 3.80039,0 5.25365,-1.390384 5.25365,-5.481878 v -1.042586 c 0,-1.633161 0.008,-3.618849 -1.07733,-4.623033 -0.9273,-0.857717 -2.84011,-0.858849 -4.17632,-0.858849"
       style="fill:#001741;fill-opacity:1;fill-rule:nonzero;stroke:none;stroke-width:0.10715171"
       id="path1100"
       inkscape:connector-curvature="0"
       sodipodi:nodetypes="ccccccccccccsssscsccscssssc" />
  </g>
</svg>
