<?xml version="1.0" encoding="UTF-8" standalone="no"?>
<svg
   xmlns:dc="http://purl.org/dc/elements/1.1/"
   xmlns:cc="http://creativecommons.org/ns#"
   xmlns:rdf="http://www.w3.org/1999/02/22-rdf-syntax-ns#"
   xmlns:svg="http://www.w3.org/2000/svg"
   xmlns="http://www.w3.org/2000/svg"
   xmlns:sodipodi="http://sodipodi.sourceforge.net/DTD/sodipodi-0.dtd"
   xmlns:inkscape="http://www.inkscape.org/namespaces/inkscape"
   id="svg5013"
   version="1.1"
   viewBox="0 0 110.72965 18.13558"
   height="18.13558mm"
   width="110.72965mm"
   sodipodi:docname="DataGarage_w.svg"
   inkscape:version="0.92.5 (2060ec1f9f, 2020-04-08)">
  <sodipodi:namedview
     pagecolor="#ffffff"
     bordercolor="#666666"
     borderopacity="1"
     objecttolerance="10"
     gridtolerance="10"
     guidetolerance="10"
     inkscape:pageopacity="0"
     inkscape:pageshadow="2"
     inkscape:window-width="1548"
     inkscape:window-height="836"
     id="namedview17"
     showgrid="false"
     inkscape:zoom="1.0561384"
     inkscape:cx="16.762163"
     inkscape:cy="32.378272"
     inkscape:window-x="52"
     inkscape:window-y="27"
     inkscape:window-maximized="1"
     inkscape:current-layer="svg5013" />
  <defs
     id="defs5007" />
  <metadata
     id="metadata5010">
    <rdf:RDF>
      <cc:Work
         rdf:about="">
        <dc:format>image/svg+xml</dc:format>
        <dc:type
           rdf:resource="http://purl.org/dc/dcmitype/StillImage" />
        <dc:title></dc:title>
      </cc:Work>
    </rdf:RDF>
  </metadata>
  <g
     transform="translate(-19.212557,-136.63452)"
     id="layer1"
     style="fill:#ffffff;fill-opacity:1">
    <g
       id="text817-46-29-0-3-3-0-5-5-6-2-7-8-8-2-5-0-0-437"
       style="font-style:normal;font-weight:normal;font-size:4.93888855px;line-height:1.25;font-family:sans-serif;letter-spacing:0px;word-spacing:0px;fill:#ffffff;fill-opacity:1;stroke:none;stroke-width:0.26458332"
       aria-label="Data Garage ">
      <path
         id="path9320"
         style="font-style:normal;font-variant:normal;font-weight:normal;font-stretch:normal;font-size:19.75555611px;font-family:DymaxionScript;-inkscape-font-specification:DymaxionScript;fill:#ffffff;fill-opacity:1;stroke-width:0.26458332"
         d="m 32.132684,146.49243 q 0,0.21732 -0.01975,0.43463 0,0.21731 -0.03951,0.43462 -0.197556,1.38289 -1.303867,2.52871 -1.086555,1.14582 -3.9116,1.14582 h -7.6454 v -0.90875 q 0.1778,0 0.3556,0 0.1778,0 0.3556,0 0.217311,0.0197 0.434622,0.0197 0.237067,0 0.474133,0 1.2446,-0.0197 2.390423,-0.37535 1.145822,-0.3556 1.758244,-1.69898 l 3.062111,-6.5786 q -0.296333,-0.31609 -0.671689,-0.73096 -0.375355,-0.43462 -0.809977,-0.86924 -0.276578,-0.27658 -0.572911,-0.5334 -0.276578,-0.27658 -0.553156,-0.51365 -0.395111,-0.3556 -0.809978,-0.63217 -0.395111,-0.27658 -0.750711,-0.41487 -0.316089,-0.13829 -0.612422,-0.1778 -0.296334,-0.0593 -0.5334,-0.0593 -0.256822,0 -0.454378,0.079 -0.1778,0.0593 -0.237067,0.15805 -0.01975,0.0197 -0.03951,0.079 0,0.0395 0,0.0988 0,0.39511 0.730956,1.36313 0.730955,0.94827 2.884311,2.4892 l -0.513644,0.73096 q -0.197556,-0.13829 -0.770467,-0.55316 -0.553156,-0.41486 -1.205089,-0.98777 -0.434622,-0.39512 -0.849489,-0.82974 -0.414867,-0.45438 -0.7112,-0.90875 -0.217311,-0.33585 -0.3556,-0.65194 -0.118533,-0.33584 -0.118533,-0.65193 0,-0.15805 0.03951,-0.29633 0.03951,-0.15805 0.118533,-0.29634 0.197556,-0.3556 0.592667,-0.5334 0.414866,-0.19755 0.928511,-0.19755 0.335844,0.0198 0.691444,0.0988 0.375356,0.0593 0.750711,0.21732 0.612423,0.25682 1.501423,1.00753 0.908755,0.75071 1.876778,1.71873 0.217311,0.21731 0.434622,0.45438 0.217311,0.21731 0.434622,0.45438 l 0.691445,-1.50142 0.809977,0.37535 -0.849489,1.83727 q 0.928512,1.02729 1.619956,1.9558 0.7112,0.90875 0.968022,1.4224 0.217311,0.43462 0.316089,0.889 0.118533,0.45438 0.118533,0.90875 z m -0.889,0 q 0,-0.3556 -0.09878,-0.7112 -0.07902,-0.3556 -0.256823,-0.69144 -0.197555,-0.39511 -0.790222,-1.16558 -0.592666,-0.79022 -1.402644,-1.69898 -0.197556,0.41487 -0.414867,0.86925 -0.197556,0.45438 -0.414867,0.889 -0.770466,1.67922 -1.4224,3.08187 -0.651933,1.38288 -0.651933,1.38288 -0.237067,0.5334 -0.592667,0.94827 -0.3556,0.41487 -0.829733,0.73096 0.632178,0 1.2446,0 0.632178,0 1.2446,0 1.876778,0 3.121378,-0.77047 1.264355,-0.79022 1.264355,-2.86456 z" />
      <path
         id="path9322"
         style="font-style:normal;font-variant:normal;font-weight:normal;font-stretch:normal;font-size:19.75555611px;font-family:DymaxionScript;-inkscape-font-specification:DymaxionScript;fill:#ffffff;fill-opacity:1;stroke-width:0.26458332"
         d="m 44.321857,150.14721 -0.256823,0.889 h -5.8674 q -0.612422,0 -0.829733,-0.27658 -0.217311,-0.29633 -0.217311,-0.73095 0,-0.15805 0.01975,-0.31609 0.01976,-0.15804 0.05927,-0.33584 0.03951,-0.13829 0.07902,-0.27658 0.03951,-0.15805 0.09878,-0.29634 0.05927,-0.19755 0.09878,-0.3556 0.05927,-0.1778 0.09878,-0.29633 -0.118533,0.11853 -0.237066,0.23707 -0.118534,0.11853 -0.256822,0.25682 -0.592667,0.59267 -1.106312,1.10631 -0.493889,0.49389 -0.493889,0.49389 -0.493888,0.49389 -0.908755,0.65193 -0.395111,0.13829 -0.671689,0.13829 -0.138289,0 -0.237067,-0.0198 -0.07902,-0.0198 -0.138289,-0.0395 -0.316088,-0.0988 -0.513644,-0.37536 -0.1778,-0.29633 -0.1778,-0.63218 0,-0.0395 0,-0.079 0,-0.0593 0.01976,-0.11853 0,-0.0395 0,-0.079 0.01976,-0.0593 0.03951,-0.0988 0.01975,-0.079 0.03951,-0.13829 0.01975,-0.079 0.03951,-0.1778 0.07902,-0.27658 0.138289,-0.61242 0.07902,-0.3556 0.1778,-0.69145 0.237066,-0.84949 0.691444,-1.56069 0.454378,-0.7112 1.382889,-0.7112 h 3.812822 l -1.126066,3.9116 q 0,0.0198 -0.01976,0.0395 0,0.0198 0,0.0395 0,0.0198 0,0.0395 0,0.0198 0,0.0395 0,0.13829 0.09878,0.25682 0.118533,0.11853 0.296333,0.11853 h 5.867401 z m -6.262512,-3.556 -2.923822,0.0198 q -0.197556,0 -0.3556,0.079 -0.158045,0.079 -0.217311,0.29633 l -0.750711,2.60774 q -0.01976,0.0197 -0.01976,0.0593 0,0.0198 0,0.0593 0,0.13829 0.07902,0.25682 0.07902,0.11854 0.197556,0.15805 0.03951,0.0197 0.05927,0.0197 0.03951,0 0.07902,0 0.05927,0 0.118533,-0.0197 0.05927,-0.0198 0.118533,-0.0395 0.09878,-0.0593 0.197556,-0.13829 0.09878,-0.079 0.1778,-0.15805 0.03951,-0.0197 0.05927,-0.0395 0.01976,-0.0198 0.03951,-0.0395 l 3.141133,-3.12138 z" />
      <path
         id="path9324"
         style="font-style:normal;font-variant:normal;font-weight:normal;font-stretch:normal;font-size:19.75555611px;font-family:DymaxionScript;-inkscape-font-specification:DymaxionScript;fill:#ffffff;fill-opacity:1;stroke-width:0.26458332"
         d="m 50.663358,150.14721 -0.256822,0.889 H 44.87498 q -0.849488,0 -1.165577,-0.41486 -0.316089,-0.43463 -0.316089,-1.04705 0,-0.21731 0.03951,-0.45438 0.03951,-0.23706 0.07902,-0.47413 0.05927,-0.25682 0.118533,-0.49389 0.07902,-0.25682 0.158045,-0.49389 0.09878,-0.29633 0.1778,-0.57291 0.09878,-0.27658 0.158044,-0.47413 h -1.619955 l 0.256822,-0.90876 h 1.619956 l 0.809977,-2.82504 h 0.908756 l -0.809978,2.82504 h 1.639711 l -0.256822,0.90876 h -1.639711 l -0.691445,2.41018 q -0.01976,0.079 -0.03951,0.15804 0,0.079 0,0.15804 0,0.33585 0.217311,0.57292 0.237067,0.23706 0.612423,0.23706 h 5.531555 z" />
      <path
         id="path9326"
         style="font-style:normal;font-variant:normal;font-weight:normal;font-stretch:normal;font-size:19.75555611px;font-family:DymaxionScript;-inkscape-font-specification:DymaxionScript;fill:#ffffff;fill-opacity:1;stroke-width:0.26458332"
         d="m 61.509132,150.14721 -0.256822,0.889 h -5.8674 q -0.612422,0 -0.829733,-0.27658 -0.217311,-0.29633 -0.217311,-0.73095 0,-0.15805 0.01976,-0.31609 0.01976,-0.15804 0.05927,-0.33584 0.03951,-0.13829 0.07902,-0.27658 0.03951,-0.15805 0.09878,-0.29634 0.05927,-0.19755 0.09878,-0.3556 0.05927,-0.1778 0.09878,-0.29633 -0.118533,0.11853 -0.237066,0.23707 -0.118534,0.11853 -0.256823,0.25682 -0.592666,0.59267 -1.106311,1.10631 -0.493889,0.49389 -0.493889,0.49389 -0.493889,0.49389 -0.908755,0.65193 -0.395111,0.13829 -0.671689,0.13829 -0.138289,0 -0.237067,-0.0198 -0.07902,-0.0198 -0.138289,-0.0395 -0.316089,-0.0988 -0.513644,-0.37536 -0.1778,-0.29633 -0.1778,-0.63218 0,-0.0395 0,-0.079 0,-0.0593 0.01975,-0.11853 0,-0.0395 0,-0.079 0.01976,-0.0593 0.03951,-0.0988 0.01975,-0.079 0.03951,-0.13829 0.01976,-0.079 0.03951,-0.1778 0.07902,-0.27658 0.138289,-0.61242 0.07902,-0.3556 0.1778,-0.69145 0.237066,-0.84949 0.691444,-1.56069 0.454378,-0.7112 1.382889,-0.7112 h 3.812822 l -1.126066,3.9116 q 0,0.0198 -0.01976,0.0395 0,0.0198 0,0.0395 0,0.0198 0,0.0395 0,0.0198 0,0.0395 0,0.13829 0.09878,0.25682 0.118533,0.11853 0.296333,0.11853 h 5.8674 z m -6.262511,-3.556 -2.923822,0.0198 q -0.197556,0 -0.3556,0.079 -0.158045,0.079 -0.217311,0.29633 l -0.750711,2.60774 q -0.01976,0.0197 -0.01976,0.0593 0,0.0198 0,0.0593 0,0.13829 0.07902,0.25682 0.07902,0.11854 0.197556,0.15805 0.03951,0.0197 0.05927,0.0197 0.03951,0 0.07902,0 0.05927,0 0.118533,-0.0197 0.05927,-0.0198 0.118533,-0.0395 0.09878,-0.0593 0.197556,-0.13829 0.09878,-0.079 0.1778,-0.15805 0.03951,-0.0197 0.05927,-0.0395 0.01976,-0.0198 0.03951,-0.0395 l 3.141133,-3.12138 z" />
      <path
         id="path9328"
         style="font-style:normal;font-variant:normal;font-weight:normal;font-stretch:normal;font-size:19.75555611px;font-family:DymaxionScript;-inkscape-font-specification:DymaxionScript;fill:#ffffff;fill-opacity:1;stroke-width:0.26458332"
         d="m 75.792364,137.68146 q 0.09878,0.19755 0.158044,0.43462 0.05927,0.23706 0.05927,0.49389 0,0.45438 -0.197556,0.94826 -0.1778,0.49389 -0.592666,1.00754 -0.3556,0.41486 -0.869245,0.84949 -0.513644,0.41486 -1.224844,0.80997 l -0.434622,-0.79022 q 0.197555,-0.11853 0.474133,-0.29633 0.296333,-0.1778 0.612422,-0.43462 0.513645,-0.41487 0.928511,-0.94827 0.434623,-0.5334 0.434623,-1.10631 0,-0.15805 -0.03951,-0.27658 -0.01976,-0.13829 -0.09878,-0.27658 -0.138289,-0.27658 -0.414867,-0.41486 -0.276578,-0.15805 -0.612422,-0.15805 -0.197556,0 -0.414867,0.0593 -0.217311,0.0593 -0.434622,0.15804 -0.612422,0.29634 -1.501422,0.889 -0.889001,0.57291 -1.837267,1.58045 -0.553156,0.61242 -1.106311,1.40264 -0.553156,0.77047 -1.047045,1.73849 -0.632178,1.2446 -0.889,2.17311 -0.256822,0.92851 -0.256822,1.52118 0.01975,0.29633 0.05927,0.51364 0.05927,0.19756 0.138288,0.33585 0.01976,0.0197 0.03951,0.0593 0.01976,0.0197 0.03951,0.0395 0.07902,0.079 0.197555,0.13829 0.138289,0.0593 0.3556,0.0593 0.5334,0 1.106311,-0.21731 0.572912,-0.23707 1.165578,-0.67169 0.908756,-0.65193 1.778,-1.73849 0.889,-1.08655 1.580445,-2.44969 l 0.829733,0.33585 q -0.256822,0.82973 -0.513644,1.67922 -0.237067,0.82973 -0.493889,1.65947 -0.256822,0.82973 -0.513645,1.67922 -0.237066,0.82973 -0.493889,1.65947 h 3.654778 l -0.395111,0.889 H 71.40663 q -0.790222,1.6002 -2.429933,2.62749 -1.619956,1.02728 -3.417711,1.12606 -0.07902,0 -0.158045,0 -0.05927,0 -0.138289,0 -0.493888,0 -0.889,-0.11853 -0.395111,-0.11853 -0.671688,-0.37536 -0.256823,-0.21731 -0.395112,-0.55315 -0.138288,-0.31609 -0.138288,-0.69145 0,-0.0988 0,-0.19755 0.01975,-0.0988 0.03951,-0.19756 0.1778,-0.92851 1.126066,-1.71873 0.948267,-0.79022 2.370667,-0.79022 h 4.109156 q 0.217311,-0.65194 0.395111,-1.30387 0.197555,-0.65193 0.395111,-1.30387 0.09878,-0.33584 0.197556,-0.65193 0.09878,-0.33584 0.197555,-0.65193 -0.09878,0.11853 -0.197555,0.23706 -0.09878,0.11854 -0.197556,0.21731 -0.809978,0.90876 -1.936045,1.67923 -1.126066,0.75071 -2.350911,0.75071 -0.474133,0 -0.829733,-0.1778 -0.3556,-0.19756 -0.572911,-0.57291 -0.158045,-0.25683 -0.237067,-0.59267 -0.07902,-0.33584 -0.07902,-0.73096 0,-0.80997 0.316089,-1.83726 0.316089,-1.04705 0.928511,-2.25214 0.5334,-1.04704 1.126067,-1.87677 0.592666,-0.82974 1.205089,-1.48167 1.007533,-1.08656 1.9558,-1.71873 0.948266,-0.63218 1.6002,-0.92852 0.335844,-0.15804 0.651933,-0.21731 0.316089,-0.079 0.612422,-0.079 0.632178,0 1.086556,0.29633 0.474133,0.29634 0.7112,0.75072 z m -5.413023,13.335 h -3.674533 q -0.197556,0 -0.414867,0.0395 -0.217311,0.0197 -0.434622,0.0988 -0.671689,0.19755 -1.2446,0.69144 -0.553155,0.47413 -0.553155,1.18533 0,0.1778 0.05927,0.31609 0.05927,0.15805 0.1778,0.25682 0.158045,0.13829 0.395111,0.19756 0.256823,0.079 0.572911,0.079 0.01976,0 0.03951,0 0.03951,0 0.07902,0 1.501422,-0.0395 2.864555,-0.82973 1.382889,-0.79022 2.1336,-2.03482 z" />
      <path
         id="path9330"
         style="font-style:normal;font-variant:normal;font-weight:normal;font-stretch:normal;font-size:19.75555611px;font-family:DymaxionScript;-inkscape-font-specification:DymaxionScript;fill:#ffffff;fill-opacity:1;stroke-width:0.26458332"
         d="m 87.507404,150.14721 -0.256822,0.889 h -5.8674 q -0.612422,0 -0.829733,-0.27658 -0.217312,-0.29633 -0.217312,-0.73095 0,-0.15805 0.01976,-0.31609 0.01976,-0.15804 0.05927,-0.33584 0.03951,-0.13829 0.07902,-0.27658 0.03951,-0.15805 0.09878,-0.29634 0.05927,-0.19755 0.09878,-0.3556 0.05927,-0.1778 0.09878,-0.29633 -0.118533,0.11853 -0.237066,0.23707 -0.118534,0.11853 -0.256823,0.25682 -0.592666,0.59267 -1.106311,1.10631 -0.493889,0.49389 -0.493889,0.49389 -0.493889,0.49389 -0.908755,0.65193 -0.395111,0.13829 -0.671689,0.13829 -0.138289,0 -0.237067,-0.0198 -0.07902,-0.0198 -0.138289,-0.0395 -0.316089,-0.0988 -0.513644,-0.37536 -0.1778,-0.29633 -0.1778,-0.63218 0,-0.0395 0,-0.079 0,-0.0593 0.01976,-0.11853 0,-0.0395 0,-0.079 0.01976,-0.0593 0.03951,-0.0988 0.01976,-0.079 0.03951,-0.13829 0.01976,-0.079 0.03951,-0.1778 0.07902,-0.27658 0.138289,-0.61242 0.07902,-0.3556 0.1778,-0.69145 0.237066,-0.84949 0.691444,-1.56069 0.454378,-0.7112 1.382889,-0.7112 h 3.812822 l -1.126066,3.9116 q 0,0.0198 -0.01976,0.0395 0,0.0198 0,0.0395 0,0.0198 0,0.0395 0,0.0198 0,0.0395 0,0.13829 0.09878,0.25682 0.118533,0.11853 0.296333,0.11853 h 5.8674 z m -6.262511,-3.556 -2.923822,0.0198 q -0.197556,0 -0.3556,0.079 -0.158045,0.079 -0.217311,0.29633 l -0.750712,2.60774 q -0.01976,0.0197 -0.01976,0.0593 0,0.0198 0,0.0593 0,0.13829 0.07902,0.25682 0.07902,0.11854 0.197556,0.15805 0.03951,0.0197 0.05927,0.0197 0.03951,0 0.07902,0 0.05927,0 0.118533,-0.0197 0.05927,-0.0198 0.118533,-0.0395 0.09878,-0.0593 0.197556,-0.13829 0.09878,-0.079 0.1778,-0.15805 0.03951,-0.0197 0.05927,-0.0395 0.01975,-0.0198 0.03951,-0.0395 l 3.141133,-3.12138 z" />
      <path
         id="path9332"
         style="font-style:normal;font-variant:normal;font-weight:normal;font-stretch:normal;font-size:19.75555611px;font-family:DymaxionScript;-inkscape-font-specification:DymaxionScript;fill:#ffffff;fill-opacity:1;stroke-width:0.26458332"
         d="m 98.313666,150.14721 -0.256822,0.889 h -5.610578 q -0.849489,0 -1.165578,-0.43462 -0.316089,-0.43462 -0.316089,-1.04704 0,-0.21732 0.01975,-0.45438 0.03951,-0.23707 0.09878,-0.47414 0.05927,-0.25682 0.118534,-0.51364 0.07902,-0.25682 0.158044,-0.47413 0.09878,-0.31609 0.1778,-0.57291 0.09878,-0.27658 0.158044,-0.45438 H 89.34464 l -0.968022,3.35844 q -0.138289,0.43462 -0.5334,0.75071 -0.375356,0.31609 -0.829733,0.31609 l 0.256822,-0.889 q 0.01976,0 0.01976,0 0.01976,0 0.01976,0 0.05927,-0.0197 0.09878,-0.0593 0.03951,-0.0593 0.05927,-0.11854 l 1.521178,-5.27473 h 0.889 l -0.276577,1.00753 H 93.9477 l -0.256822,0.90876 h -1.106311 l -0.691445,2.41018 q -0.01976,0.079 -0.03951,0.15804 0,0.0593 0,0.13829 0,0.33584 0.237067,0.59267 0.237066,0.23706 0.612422,0.23706 h 5.610578 z" />
      <path
         id="path9334"
         style="font-style:normal;font-variant:normal;font-weight:normal;font-stretch:normal;font-size:19.75555611px;font-family:DymaxionScript;-inkscape-font-specification:DymaxionScript;fill:#ffffff;fill-opacity:1;stroke-width:0.26458332"
         d="m 108.82359,150.14721 -0.25683,0.889 h -5.8674 q -0.61242,0 -0.82973,-0.27658 -0.21731,-0.29633 -0.21731,-0.73095 0,-0.15805 0.0198,-0.31609 0.0198,-0.15804 0.0593,-0.33584 0.0395,-0.13829 0.079,-0.27658 0.0395,-0.15805 0.0988,-0.29634 0.0593,-0.19755 0.0988,-0.3556 0.0593,-0.1778 0.0988,-0.29633 -0.11854,0.11853 -0.23707,0.23707 -0.11853,0.11853 -0.25682,0.25682 -0.59267,0.59267 -1.10631,1.10631 -0.49389,0.49389 -0.49389,0.49389 -0.493891,0.49389 -0.908758,0.65193 -0.395111,0.13829 -0.671689,0.13829 -0.138289,0 -0.237067,-0.0198 -0.07902,-0.0198 -0.138289,-0.0395 -0.316088,-0.0988 -0.513644,-0.37536 -0.1778,-0.29633 -0.1778,-0.63218 0,-0.0395 0,-0.079 0,-0.0593 0.01976,-0.11853 0,-0.0395 0,-0.079 0.01976,-0.0593 0.03951,-0.0988 0.01976,-0.079 0.03951,-0.13829 0.01976,-0.079 0.03951,-0.1778 0.07902,-0.27658 0.138289,-0.61242 0.07902,-0.3556 0.1778,-0.69145 0.237066,-0.84949 0.691444,-1.56069 0.454378,-0.7112 1.382889,-0.7112 h 3.812825 l -1.12607,3.9116 q 0,0.0198 -0.0198,0.0395 0,0.0198 0,0.0395 0,0.0198 0,0.0395 0,0.0198 0,0.0395 0,0.13829 0.0988,0.25682 0.11854,0.11853 0.29634,0.11853 h 5.8674 z m -6.26252,-3.556 -2.923818,0.0198 q -0.197556,0 -0.3556,0.079 -0.158045,0.079 -0.217311,0.29633 l -0.750711,2.60774 q -0.01976,0.0197 -0.01976,0.0593 0,0.0198 0,0.0593 0,0.13829 0.07902,0.25682 0.07902,0.11854 0.197556,0.15805 0.03951,0.0197 0.05927,0.0197 0.03951,0 0.07902,0 0.05927,0 0.118533,-0.0197 0.05927,-0.0198 0.118533,-0.0395 0.09878,-0.0593 0.197556,-0.13829 0.09878,-0.079 0.1778,-0.15805 0.03951,-0.0197 0.05927,-0.0395 0.01975,-0.0198 0.03951,-0.0395 l 3.141132,-3.12138 z" />
      <path
         id="path9336"
         style="font-style:normal;font-variant:normal;font-weight:normal;font-stretch:normal;font-size:19.75555611px;font-family:DymaxionScript;-inkscape-font-specification:DymaxionScript;fill:#ffffff;fill-opacity:1;stroke-width:0.26458332"
         d="m 119.68911,150.14721 -0.25682,0.889 h -6.18349 q -0.13829,0 -0.27658,0.0198 -0.11853,0 -0.23706,0.0197 l -0.69145,2.42994 q -0.11853,0.39511 -0.47413,0.7112 -0.3556,0.31609 -0.80998,0.31609 l -2.52871,0.0197 q 0.41487,-1.46191 1.34338,-2.56822 0.94826,-1.10631 2.44969,-1.6002 l 0.65193,-2.23238 -2.11384,2.09409 q -0.49389,0.49389 -0.889,0.65193 -0.39512,0.13829 -0.67169,0.13829 -0.13829,0 -0.23707,-0.0198 -0.079,-0.0198 -0.13829,-0.0395 -0.31609,-0.0988 -0.51364,-0.37536 -0.1778,-0.29633 -0.1778,-0.67169 0,-0.079 0,-0.15804 0.0198,-0.0988 0.0395,-0.1778 0.0198,-0.079 0.0395,-0.1778 0.0395,-0.0988 0.0593,-0.19756 0.079,-0.29633 0.13828,-0.61242 0.079,-0.31609 0.15805,-0.63218 0.23707,-0.84949 0.69144,-1.56069 0.45438,-0.7112 1.40265,-0.7112 h 3.81282 l -1.28411,4.46476 q 0.11853,-0.0198 0.23707,-0.0198 0.13828,0 0.27657,0 h 6.18349 z m -7.94173,1.22485 q -0.75071,0.31609 -1.38289,0.92851 -0.61242,0.59266 -0.94827,1.34338 l 1.6002,0.0198 q 0.0198,-0.0198 0.0395,-0.0593 0.0395,-0.0198 0.0593,-0.0395 0,-0.0197 0,-0.0395 0.0198,-0.0197 0.0198,-0.0395 l 0.61242,-2.11384 z m 1.36313,-4.76109 h -2.90406 q -0.19756,0 -0.3556,0.079 -0.15805,0.079 -0.21732,0.29633 l -0.75071,2.60774 q -0.0198,0.0197 -0.0198,0.0593 0,0.0198 0,0.0593 0,0.13829 0.079,0.25682 0.079,0.11854 0.19756,0.15805 0.0395,0.0197 0.0593,0.0197 0.0395,0 0.0593,0 0.0593,0 0.13829,-0.0197 0.079,-0.0198 0.13829,-0.0593 0.0988,-0.0593 0.1778,-0.11853 0.0988,-0.079 0.1778,-0.15805 0.0395,-0.0197 0.0593,-0.0395 0.0198,-0.0198 0.0395,-0.0395 l 3.12138,-3.10162 z" />
      <path
         id="path9338"
         style="font-style:normal;font-variant:normal;font-weight:normal;font-stretch:normal;font-size:19.75555611px;font-family:DymaxionScript;-inkscape-font-specification:DymaxionScript;fill:#ffffff;fill-opacity:1;stroke-width:0.26458332"
         d="m 129.94221,150.14721 -0.25682,0.889 h -9.04804 q -0.59267,0 -0.92851,-0.3556 -0.33585,-0.3556 -0.31609,-0.86924 0,-0.0988 0.0197,-0.19756 0.0198,-0.11853 0.0395,-0.23706 0.0988,-0.33585 0.31609,-0.63218 0.21731,-0.31609 0.51365,-0.5334 -0.11854,-0.15805 -0.19756,-0.33585 -0.0593,-0.1778 -0.0593,-0.37535 0,-0.0395 0,-0.079 0,-0.0395 0.0198,-0.0988 0,-0.0395 0,-0.079 0.0198,-0.0395 0.0395,-0.079 0.1778,-0.59266 0.75071,-1.00753 0.59267,-0.43462 1.2446,-0.45438 0.0198,0 0.0395,0 0.0198,0 0.0395,0 h 3.45723 l -0.25683,0.889 h -3.45722 q -0.0593,0 -0.13829,0.0198 -0.079,0 -0.15804,0.0197 -0.19756,0.0593 -0.37536,0.19756 -0.1778,0.13829 -0.23706,0.33584 -0.0198,0.0198 -0.0198,0.0593 0,0.0198 0,0.0593 0,0.1778 0.1778,0.31609 0.1778,0.11853 0.43462,0.11853 h 2.15336 l -0.25682,0.90875 h -2.15336 q -0.31609,0 -0.61242,0.23707 -0.27658,0.21731 -0.37536,0.51365 -0.0198,0.0593 -0.0395,0.11853 0,0.0395 0.0198,0.079 0,0.25682 0.15804,0.41487 0.15805,0.15804 0.41487,0.15804 h 9.04804 z" />
    </g>
  </g>
</svg>
